<?xml version="1.0" standalone="no"?>
<!DOCTYPE svg PUBLIC "-//W3C//DTD SVG 20010904//EN"
 "http://www.w3.org/TR/2001/REC-SVG-20010904/DTD/svg10.dtd">
<svg version="1.0" xmlns="http://www.w3.org/2000/svg"
 width="512.000000pt" height="512.000000pt" viewBox="0 0 512.000000 512.000000"
 preserveAspectRatio="xMidYMid meet">

<g transform="translate(0.000000,512.000000) scale(0.100000,-0.100000)"
fill="#016447" stroke="none">
<path d="M1452 4586 c-587 -294 -1082 -546 -1099 -560 -52 -44 -57 -73 -50
-341 22 -831 230 -1642 582 -2260 277 -487 631 -863 1080 -1146 192 -121 528
-279 595 -279 79 0 452 182 664 324 198 133 289 207 467 385 234 234 404 460
569 760 345 627 559 1512 560 2313 0 163 -6 197 -43 237 -12 13 -507 266
-1100 562 -880 440 -1085 539 -1117 539 -32 0 -236 -98 -1108 -534z m1926
-530 c618 -309 792 -400 807 -422 27 -42 29 -101 10 -284 -67 -667 -260 -1280
-546 -1738 -111 -180 -217 -312 -378 -473 -174 -173 -308 -278 -496 -388 -164
-96 -200 -108 -259 -89 -65 22 -276 148 -401 241 -141 103 -397 359 -501 499
-374 503 -606 1158 -689 1942 -19 180 -17 248 10 289 15 23 185 112 807 423
504 252 799 394 818 394 19 0 314 -142 818 -394z"/>
<path d="M1888 3794 l-668 -334 0 -39 c0 -119 61 -479 122 -716 182 -715 520
-1257 993 -1592 93 -66 208 -133 226 -133 23 0 171 92 274 170 460 348 783
891 955 1605 57 232 110 556 110 665 l0 40 -670 335 c-368 184 -671 335 -672
334 -2 0 -303 -151 -670 -335z"/>
</g>
</svg>
